#!OML:ASF E:\inclinewalkrobotboard\Project 1\Capture day 1\Session 1\subject1.ASF
:FULLY-SPECIFIED
:DEGREES
365
root 8.64056 16.5122 5.99144 -175.806 -2.49567 181.789
lowerback -4.02937 1.82032 -8.53506
upperback 1.66096 2.84385 1.75264
thorax 3.50079 1.19348 6.82723
lowerneck -7.43819 9.1649 2.12827
upperneck 13.3606 11.8794 0.252789
head 5.35716 5.83587 0.544071
rclavicle 6.41081e-015 8.34896e-015
rhumerus -48.516 -28.4471 -64.539
rradius 30.4675
rwrist 17.4623
rhand -18.1675 -43.0226
rfingers 7.12502
rthumb 8.1087 -72.8471
lclavicle 6.41081e-015 8.34896e-015
lhumerus -24.7225 -1.81352 88.7253
lradius 20.0818
lwrist -22.9
lhand -28.6291 -21.7747
lfingers 7.12502
lthumb -1.99355 8.19569
rfemur -23.1496 -2.10879 11.2276
rtibia 42.8969
rfoot -10.9355 -11.0151
rtoes -24.0192
lfemur -9.1124 -5.99916 -24.0616
ltibia 19.4296
lfoot -17.0339 5.498
ltoes -50.227
366
root 8.63949 16.5152 6.03425 -175.714 -2.18454 181.809
lowerback -4.04776 1.99597 -8.38723
upperback 1.6489 3.07173 1.74714
thorax 3.46441 1.31311 6.74922
lowerneck -6.67885 10.015 2.5309
upperneck 12.5494 13.0711 -0.229021
head 5.04917 6.42736 0.360531
rclavicle 1.56791e-014 9.54166e-015
rhumerus -48.5651 -28.6059 -64.3794
rradius 30.591
rwrist 17.4306
rhand -18.1703 -42.8982
rfingers 7.12502
rthumb 8.10594 -72.7227
lclavicle 1.56791e-014 9.54166e-015
lhumerus -24.7637 -2.28794 88.7766
lradius 19.8902
lwrist -22.6548
lhand -28.6247 -21.8291
lfingers 7.12502
lthumb -1.98922 8.14136
rfemur -22.8844 -2.20871 11.2974
rtibia 43.7565
rfoot -11.1762 -10.9287
rtoes -23.0286
lfemur -9.36509 -6.00236 -24.0416
ltibia 19.4506
lfoot -17.0684 5.66072
ltoes -49.8574
367
root 8.64005 16.5178 6.07662 -175.688 -1.90332 181.78
lowerback -4.0043 2.23193 -8.25164
upperback 1.66287 3.37617 1.73074
thorax 3.40822 1.47056 6.66755
lowerneck -5.71631 10.8116 2.80837
upperneck 11.5329 14.2047 -0.720393
head 4.64746 6.9924 0.163762
rclavicle 4.17448e-014 1.19271e-015
rhumerus -48.6988 -28.8041 -64.162
rradius 30.785
rwrist 17.3641
rhand -18.2327 -42.6963
rfingers 7.12502
rthumb 8.04579 -72.5231
lclavicle 4.17448e-014 1.19271e-015
lhumerus -24.7332 -2.50331 88.8305
lradius 19.6154
lwrist -22.8965
lhand -28.5605 -21.8167
lfingers 7.12502
lthumb -1.92726 8.15432
rfemur -22.4871 -2.39432 11.3096
rtibia 44.5241
rfoot -11.3522 -10.8777
rtoes -22.5779
lfemur -9.50701 -5.99079 -24.0668
ltibia 19.416
lfoot -17.0708 5.81461
ltoes -49.5181
368
root 8.64107 16.5199 6.11948 -175.586 -1.5642 181.841
lowerback -4.01652 2.50565 -8.01931
upperback 1.65582 3.72994 1.72011
thorax 3.35972 1.65527 6.54126
lowerneck -5.2279 11.6316 2.9136
upperneck 10.6495 15.3381 -0.951371
head 4.81631 7.55811 0.103648
rclavicle 3.90115e-015 -1.72943e-014
rhumerus -48.8477 -28.8822 -64.0687
rradius 31.0606
rwrist 17.0605
rhand -18.3431 -41.966
rfingers 7.12502
rthumb 7.93916 -71.7969
lclavicle 3.90115e-015 -1.72943e-014
lhumerus -24.7331 -2.53809 88.8242
lradius 19.3587
lwrist -23.4365
lhand -28.5368 -21.807
lfingers 7.12502
lthumb -1.90431 8.16423
rfemur -22.203 -2.58073 11.4595
rtibia 45.3941
rfoot -11.3979 -10.9924
rtoes -23.2356
lfemur -9.72614 -6.0115 -23.9742
ltibia 19.3305
lfoot -17.1104 5.98419
ltoes -48.996
369
root 8.64083 16.5226 6.16301 -175.419 -1.16261 181.784
lowerback -4.08221 2.79345 -7.90342
upperback 1.607 4.11407 1.66889
thorax 3.29117 1.85538 6.44073
lowerneck -4.74271 12.5001 3.07779
upperneck 10.2807 16.5365 -1.24374
head 4.65851 8.15179 0.0176353
rclavicle 2.57178e-014 -2.24627e-014
rhumerus -49.1015 -28.8872 -64.013
rradius 31.3927
rwrist 16.7261
rhand -18.5994 -42.8655
rfingers 7.12502
rthumb 7.69182 -72.7056
lclavicle 2.57178e-014 -2.24627e-014
lhumerus -24.7725 -2.69999 88.7811
lradius 19.0986
lwrist -23.9379
lhand -28.7217 -22.219
lfingers 7.12502
lthumb -2.08289 7.75054
rfemur -22.0923 -2.78043 11.444
rtibia 46.414
rfoot -11.3686 -11.0171
rtoes -22.7515
lfemur -10.0008 -6.04104 -24.0111
ltibia 19.1564
lfoot -17.1483 5.98705
ltoes -47.5556
370
root 8.64045 16.5261 6.20442 -175.274 -0.861761 181.6
lowerback -4.1474 3.0895 -7.88269
upperback 1.58276 4.51634 1.5709
thorax 3.24443 2.06066 6.34613
lowerneck -4.1754 13.3399 3.47997
upperneck 9.83813 17.7047 -1.80066
head 4.52177 8.72997 -0.196789
rclavicle 2.45002e-014 -3.77691e-014
rhumerus -49.3994 -29.0184 -63.8761
rradius 31.634
rwrist 16.5464
rhand -18.6539 -43.0542
rfingers 7.12502
rthumb 7.63922 -72.8963
lclavicle 2.45002e-014 -3.77691e-014
lhumerus -24.7373 -3.18553 88.7928
lradius 18.8383
lwrist -24.1765
lhand -28.9771 -22.7011
lfingers 7.12502
lthumb -2.32957 7.26593
rfemur -21.8885 -3.08256 11.2462
rtibia 47.3439
rfoot -11.3475 -10.9369
rtoes -21.5284
lfemur -10.2393 -6.00683 -24.1968
ltibia 18.998
lfoot -17.1207 5.90005
ltoes -46.1689
371
root 8.64146 16.5298 6.24423 -175.227 -0.690406 181.306
lowerback -4.11697 3.38206 -7.97168
upperback 1.61148 4.91386 1.43932
thorax 3.19613 2.25918 6.27241
lowerneck -3.70255 14.1201 3.72415
upperneck 9.34692 18.7929 -2.26413
head 4.36827 9.27024 -0.35919
rclavicle -1.2275e-014 1.94809e-014
rhumerus -49.6197 -29.3019 -63.6519
rradius 31.6675
rwrist 16.52
rhand -18.798 -42.7893
rfingers 7.12502
rthumb 7.50011 -72.6364
lclavicle -1.2275e-014 1.94809e-014
lhumerus -24.6174 -3.84282 88.8328
lradius 18.6793
lwrist -24.1797
lhand -28.8214 -22.5361
lfingers 7.12502
lthumb -2.17926 7.43248
rfemur -21.476 -3.5462 10.9248
rtibia 48.1991
rfoot -11.3198 -10.8349
rtoes -21.8718
lfemur -10.3568 -5.92688 -24.5283
ltibia 18.8818
lfoot -17.0655 5.87214
ltoes -45.9089
